<?xml version="1.0" encoding="UTF-8"?>
<svg width="110px" height="93px" viewBox="0 0 110 93" version="1.1" xmlns="http://www.w3.org/2000/svg" xmlns:xlink="http://www.w3.org/1999/xlink">
    <!-- Generator: Sketch 54 (76480) - https://sketchapp.com -->
    <title>Artboard</title>
    <desc>Created with Sketch.</desc>
    <g id="Artboard" stroke="none" stroke-width="1" fill="none" fill-rule="evenodd">
        <g id="noun_send_975411" fill="#E9E9E9" fill-rule="nonzero">
            <path d="M92.9984511,4.57855003 L85.5181395,81.9112157 C85.3839614,83.5155432 84.4986382,84.9606506 83.1326099,85.8051001 C81.7665817,86.6495496 80.082127,86.7930241 78.593797,86.1916964 L53.8986603,76.6062598 L40.0499754,89.6302817 C39.1395584,90.508084 37.9262023,90.9987313 36.6636181,90.9996298 C35.3269979,91.015924 34.039667,90.4938082 33.0897262,89.5501302 C32.1397855,88.6064521 31.606549,87.3200032 31.6093536,85.9786867 L31.6093536,76.7685529 L64.9674997,34.9375044 C65.4888228,34.2861332 65.5913489,33.3923548 65.2311443,32.6391655 C64.8709397,31.8859762 64.1119355,31.4070562 63.2793754,31.4076294 C62.7681336,31.4127796 62.2760971,31.6037845 61.8945069,31.9452253 L23.4315535,64.7690063 L3.16395257,56.8977905 C1.36598076,56.2010634 0.135555278,54.5192169 0.0118146317,52.58919 C-0.111926015,50.659163 0.893587313,48.8329745 2.5877664,47.9108097 L86.8120312,0.541508984 C88.1635188,-0.227807801 89.8303084,-0.173949305 91.1296701,0.681023617 C92.4290319,1.53599654 93.142655,3.04843661 92.978234,4.59883667 L92.9984511,4.57855003 Z" id="Path"></path>
        </g>
    </g>
</svg>