<?xml version="1.0" encoding="utf-8"?>
<svg version="1.1" xmlns="http://www.w3.org/2000/svg" xmlns:xlink="http://www.w3.org/1999/xlink" height="58" width="61.00000000000364">
  <defs>
    <path id="path-1" opacity="1" fill-rule="evenodd" d="M39.780814153470565,3.6976015416234236 C44.76790939458611,-1.439799724809467 52.27258332805046,-1.1215107554151116 57.259678569165935,4.015890511017778 C62.24677381028138,9.1532917774507 62.24677381028138,17.482664963747208 57.259678569165935,22.620066230180036 L55.96472533832753,23.9540480465357 L41.22220706528343,38.55865921787864 L22.604060913710043,20.944170748131462 L38.48586092287192,5.031583357731686 L39.780814153470565,3.6976015416234236Z"/>
    <path id="path-2" opacity="1" fill-rule="evenodd" d="M22.589073950524224,21.010863378328043 L23.74466443986776,19.813008825524715 C28.654727235690892,14.723367530650306 36.61551193471425,14.723367530650306 41.52557473053737,19.813008825524722 C46.435637526360495,24.902650120399137 46.435637526360495,33.15458909320027 41.52557473053737,38.24423038807468 C36.615511934714256,43.33387168294911 22.52453703631582,57.99703237344179 22.52453703631582,57.99703237344179 L22.516734244290774,57.99999999999996 L3.66331321832518,38.24236089525027 C-1.2211044061102148,33.12599692157457 -1.2211044061102148,24.830731925998524 3.6633132183251935,19.71436795232283 C8.54773084276059,14.598003978647139 16.46693650369897,14.598003978647139 21.351354128134364,19.71436795232283 L22.589073950524224,21.010863378328043Z"/>
  </defs>
  <g opacity="1">
    <g opacity="1">
      <use xlink:href="#path-1" fill="rgb(240,240,240)" fill-opacity="1"/>
    </g>
    <g opacity="1">
      <use xlink:href="#path-2" fill="rgb(240,240,240)" fill-opacity="1"/>
    </g>
  </g>
</svg>