<?xml version="1.0" encoding="utf-8"?>
<svg version="1.1" xmlns="http://www.w3.org/2000/svg" xmlns:xlink="http://www.w3.org/1999/xlink" height="16.000020000000404" width="16.00000000000182">
  <defs>
    <path id="path-1" opacity="1" fill-rule="evenodd" d="M14.577777777777778,13.866684000000351 C14.577777777777778,14.261746222222582 14.261728395061729,14.577796000000369 13.866666666666667,14.577796000000369 L2.1333333333333333,14.577796000000369 C1.7382716049382718,14.577796000000369 1.422222222222222,14.261746222222582 1.422222222222222,13.866684000000351 L1.422222222222222,2.133336000000054 C1.422222222222222,1.7382737777778219 1.7382716049382718,1.4222240000000357 2.1333333333333333,1.4222240000000357 L6.755555555555556,1.4222240000000357 L6.755555555555556,0 L2.1333333333333333,0 C0.9481481481481483,0 0,0.9481493333333575 0,2.133336000000054 L0,13.866684000000351 C0,15.051870666667048 0.9481481481481483,16.000020000000404 2.1333333333333333,16.000020000000404 L13.866666666666667,16.000020000000404 C15.051851851851852,16.000020000000404 16,15.051870666667048 16,13.866684000000351 L16,9.244456000000232 L14.577777777777778,9.244456000000232 L14.577777777777778,13.866684000000351Z"/>
    <path id="path-2" opacity="1" fill-rule="evenodd" d="M9.244444444444934,-1.4210854715202004e-13 L9.244444444444934,1.4222239999999122 L13.570370370370942,1.4222239999999122 L7.980246913580714,7.01235444444457 L8.98765432098814,8.019763111111276 L14.577777777778365,2.4296326666666177 L14.577777777778365,6.755564000000117 L16.000000000000615,6.755564000000117 L16.000000000000615,-1.4210854715202004e-13 L9.244444444444934,-1.4210854715202004e-13Z"/>
  </defs>
  <g opacity="1">
    <g opacity="1">
      <use xlink:href="#path-1" fill="rgb(255,255,255)" fill-opacity="1"/>
    </g>
    <g opacity="1">
      <use xlink:href="#path-2" fill="rgb(255,255,255)" fill-opacity="1"/>
    </g>
  </g>
</svg>