<?xml version="1.0" encoding="utf-8"?>
<svg version="1.1" xmlns="http://www.w3.org/2000/svg" xmlns:xlink="http://www.w3.org/1999/xlink" height="18.400000000000546" width="20">
  <defs>
    <path id="path-1" opacity="1" fill-rule="evenodd" d="M1.0060794894263396,7.280910349969445 C-0.3359529839335612,8.662830286171333 -0.3347665445153346,10.886613485844792 1.0060794894263396,12.269922635352742 L6.945395217069387,18.400000000000002 C8.927596502235343,16.359072001736514 17.01131673265049,8.066684126208896 18.99334852647098,6.025582476282154 C20.335550491176345,4.643662540080266 20.335550491176345,2.4184901271007457 18.99334852647098,1.0365701908988572 C17.651316053111085,-0.34552339696628753 15.490470889829274,-0.34552339696628753 14.14826892512391,1.0365701908988572 L6.952344362233286,8.414855711039857 L5.851159090773413,7.280910349969445 C4.509126617413512,5.898990413767556 2.3481119627862403,5.898990413767556 1.0060794894263396,7.280910349969445Z"/>
    <path id="path-2" opacity="1" fill-rule="evenodd" d="M1.0023038646461446,7.298619063084608 C-0.334692216345661,8.67833809755188 -0.33351022940868924,10.89857960991527 1.0023038646461446,12.27968564517115 L6.91933047112693,18.400000000000148 C8.894092932253372,16.36232246643721 10.868686538103104,14.324644932874273 12.843280143952835,12.286794024212764 C14.180445080221352,10.907074989745492 14.180445080221352,8.685446476593492 12.843280143952835,7.305727442126221 C11.506284062961031,5.925835032560373 9.353548140181976,5.925835032560373 8.016383203913461,7.305727442126221 L6.926253537472049,8.430758456785448 L5.829200804685518,7.298619063084608 C4.492204723693711,5.918900028617338 2.3392999456379497,5.918900028617338 1.0023038646461446,7.298619063084608Z"/>
  </defs>
  <g opacity="1">
    <g opacity="1">
      <use xlink:href="#path-1" fill="rgb(255,168,38)" fill-opacity="1"/>
    </g>
    <g opacity="1">
      <use xlink:href="#path-2" fill="rgb(217,150,33)" fill-opacity="1"/>
    </g>
  </g>
</svg>