<?xml version="1.0" encoding="utf-8"?>
<svg version="1.1" xmlns="http://www.w3.org/2000/svg" xmlns:xlink="http://www.w3.org/1999/xlink" height="38.685681280167955" width="28.00714111328125">
  <defs>
    <path id="path-1" opacity="1" fill-rule="evenodd" d="M0,19.659680303605455 C0,17.917248662980455 1.400360107421875,16.49131482508983 3.111907958984375,16.49131482508983 L20.196258544921875,16.49131482508983 L20.196258544921875,10.154614385636705 C20.196258544921875,6.463452276261705 17.0843505859375,3.5012025204023303 13.365631103515625,3.8495606746992053 C10.129241943359375,4.166394170792955 7.7486419677734375,7.12882703212108 7.7486419677734375,10.43974011805858 L7.7486419677734375,10.154614385636705 C7.7486419677734375,11.04191296962108 7.06402587890625,11.738781866105455 6.19268798828125,11.738781866105455 C5.3680267333984375,11.738781866105455 4.698974609375,11.105114873917955 4.6522979736328125,10.26566785243358 C4.7456512451171875,5.528942998917955 8.1220703125,1.3307313289960803 12.758804321289062,0.7447327938398303 C18.453582763671875,0.000012334855455264915 23.30816650390625,4.51493543055858 23.30816650390625,10.154614385636705 L23.30816650390625,16.49131482508983 L24.895233154296875,16.49131482508983 C26.606781005859375,16.49131482508983 28.00714111328125,17.917248662980455 28.00714111328125,19.659680303605455 L28.00714111328125,35.51731580165233 C28.00714111328125,37.259900030167955 26.606781005859375,38.685681280167955 24.895233154296875,38.685681280167955 L3.111907958984375,38.685681280167955 C1.400360107421875,38.685681280167955 0,37.259900030167955 0,35.51731580165233 L0,19.659680303605455 L15.5750732421875,30.748913702042955 L15.5750732421875,28.78452771571483 C16.508651733398438,28.24589246180858 17.131027221679688,27.216198858292955 17.131027221679688,26.02805798915233 C17.131027221679688,24.26945203212108 15.730667114257812,22.84385388758983 14.003555297851562,22.84385388758983 C12.276458740234375,22.84385388758983 10.8760986328125,24.26945203212108 10.8760986328125,26.02805798915233 C10.8760986328125,27.232190069230455 11.5140380859375,28.26176160243358 12.463165283203125,28.800366338761705 L12.463165283203125,30.748913702042955 C12.463165283203125,31.620373662980455 13.163345336914062,32.333081182511705 14.019119262695312,32.333081182511705 C14.874893188476562,32.333081182511705 15.5750732421875,31.620373662980455 15.5750732421875,30.748913702042955 L0,19.659680303605455Z"/>
  </defs>
  <g opacity="1">
    <use xlink:href="#path-1" fill="rgb(247,184,1)" fill-opacity="1"/>
  </g>
</svg>