<?xml version="1.0" encoding="utf-8"?>
<svg version="1.1" xmlns="http://www.w3.org/2000/svg" xmlns:xlink="http://www.w3.org/1999/xlink" height="66.942138671875" width="128.80274856230608">
  <defs>
    <path id="path-1" opacity="1" fill-rule="evenodd" d="M105.36104541543504,1.534384072635027 C107.41656230613474,-0.597469938462482 110.5097424608372,-0.4653903945644849 112.56525935153688,1.6664636165330236 C114.62077624223654,3.7983176276305457 114.62077624223654,7.254735905322074 112.56525935153688,9.386589916419558 L112.03152215383719,9.940148873262258 L105.95514024080344,16.000586299004784 L98.28135178523863,8.691147937041887 L104.82730821783417,2.0879430293750647 L105.36104541543504,1.534384072635027Z"/>
    <path id="path-2" opacity="1" fill-rule="evenodd" d="M98.2751746511637,8.718823203937674 L98.75147110325359,8.22175262278793 C100.77523774961782,6.109717442584928 104.05641178398558,6.109717442584928 106.08017843034979,8.221752622787932 C108.10394507671401,10.333787802990937 108.10394507671401,13.758073406967721 106.08017843034979,15.870108587170726 C104.05641178398558,17.98214376737373 98.248574654409,24.066877334448122 98.248574654409,24.066877334448122 L98.24535859976663,24.068108802704806 L90.47459756700175,15.869332808606867 C88.46140101813994,13.746208588043705 88.46140101813994,10.303944097340452 90.47459756700175,8.180819876777296 C92.48779411586357,6.05769565621414 95.75183063611729,6.05769565621414 97.76502718497909,8.180819876777296 L98.2751746511637,8.718823203937674Z"/>
    <path id="path-3" opacity="1" fill-rule="evenodd" d="M29.881961566738028,62.79718017578125 L30.43306325130834,64.5189208984375 C30.43306325130834,65.1566162109375 30.208545429042715,65.666748046875 29.759494525722403,66.04937744140625 C29.310458881191153,66.4320068359375 28.718539935878653,66.623291015625 27.98372243099584,66.623291015625 C27.49385426693334,66.623291015625 27.085635883144278,66.51702880859375 26.75905202083959,66.304443359375 C26.432483417323965,66.09188842773438 26.146716815761465,65.77304077148438 25.901782733730215,65.34793090820312 L14.879749042323965,47.110107421875 L4.776218158534903,47.110107421875 L4.776218158534903,64.13632202148438 C4.776218158534903,64.85903930664062 4.551700336269278,65.45419311523438 4.102649432948965,65.92184448242188 C3.6535985296286526,66.38946533203125 3.0820958440817776,66.623291015625 2.388110858730215,66.623291015625 C1.6941258733786526,66.623291015625 1.1226231878317776,66.38946533203125 0.6735722845114651,65.92184448242188 C0.2245213811911526,65.45419311523438 0.00000355892552761361,64.85903930664062 0.00000355892552761361,64.13632202148438 L0.00000355892552761361,19.307022094726562 C0.00000355892552761361,18.584320068359375 0.2245213811911526,17.989151000976562 0.6735722845114651,17.521499633789062 C1.1226231878317776,17.053863525390625 1.6941258733786526,16.820053100585938 2.388110858730215,16.820053100585938 L13.838779193691153,16.820053100585938 C16.818820697597403,16.820053100585938 19.472263080409903,17.468353271484375 21.799136859706778,18.764999389648438 C24.126025897792715,20.061630249023438 25.952808124355215,21.879013061523438 27.279544574550528,24.217208862304688 C28.60628102474584,26.555404663085938 29.269626361659903,29.21240234375 29.269626361659903,32.18827819824219 C29.269626361659903,35.46174621582031 28.422580463222403,38.331298828125 26.728442889980215,40.797027587890625 C25.034305316738028,43.26275634765625 22.738071185878653,45.027008056640625 19.839664203456778,46.089813232421875 L29.881961566738028,62.79718017578125 L93.82884572201147,64.58270263671875 L93.27774403744115,63.11602783203125 L80.54117177181615,46.791259765625 L92.78787587337865,35.24916076660156 C93.3185765569724,34.781524658203125 93.58391163998022,34.2501220703125 93.58391163998022,33.65495300292969 C93.58391163998022,33.18731689453125 93.35939381771459,32.67716979980469 92.91034291439428,32.12451171875 C92.50212453060522,31.614349365234375 91.99185536556615,31.359283447265625 91.37950490169897,31.359283447265625 C90.84881947689428,31.359283447265625 90.35895131283178,31.57183837890625 89.90990040951147,31.996963500976562 L72.64204762630834,48.257965087890625 L72.64204762630834,19.243255615234375 C72.64204762630834,18.520538330078125 72.42773793392553,17.936004638671875 71.99910329037084,17.4896240234375 C71.57045338802709,17.043243408203125 71.00915883236303,16.820053100585938 70.31517384701147,16.820053100585938 C69.6211888616599,16.820053100585938 69.05989430599584,17.043243408203125 68.63125966244115,17.4896240234375 C68.2026097600974,17.936004638671875 67.98830006771459,18.520538330078125 67.98830006771459,19.243255615234375 L67.98830006771459,64.2000732421875 C67.98830006771459,64.92279052734375 68.2026097600974,65.50735473632812 68.63125966244115,65.9537353515625 C69.05989430599584,66.40011596679688 69.6211888616599,66.623291015625 70.31517384701147,66.623291015625 C71.00915883236303,66.623291015625 71.57045338802709,66.40011596679688 71.99910329037084,65.9537353515625 C72.42773793392553,65.50735473632812 72.64204762630834,64.92279052734375 72.64204762630834,64.2000732421875 L72.64204762630834,54.18841552734375 L77.23456166439428,49.8521728515625 L89.84866688900365,65.985595703125 C90.29771779232397,66.58078002929688 90.84881947689428,66.87835693359375 91.50197194271459,66.87835693359375 C91.99185536556615,66.87835693359375 92.48170827083959,66.68707275390625 92.97157643490209,66.304443359375 C93.54309437923803,65.7943115234375 93.82884572201147,65.22039794921875 93.82884572201147,64.58270263671875 L13.838779193691153,42.327484130859375 C15.879916889003653,42.327484130859375 17.727100116542715,41.8917236328125 19.380420429042715,41.02020263671875 C21.033725482753653,40.148712158203125 22.319614154628653,38.94775390625 23.238132221034903,37.41729736328125 C24.15663502865209,35.8868408203125 24.615878803066153,34.14384460449219 24.615878803066153,32.18827819824219 C24.615878803066153,30.147674560546875 24.15663502865209,28.319656372070312 23.238132221034903,26.704177856445312 C22.319614154628653,25.088699340820312 21.043933612636465,23.8345947265625 19.41102955990209,22.94183349609375 C17.778125507167715,22.049072265625 15.92073414974584,21.602691650390625 13.838779193691153,21.602691650390625 L4.776218158534903,21.602691650390625 L4.776218158534903,42.327484130859375 L13.838779193691153,42.327484130859375 L56.0994603460349,33.62306213378906 C53.77258656673803,32.15638732910156 51.098743182948965,31.423049926757812 48.077869159511465,31.423049926757812 C44.97536061458959,31.423049926757812 42.20967457943334,32.177642822265625 39.7807347600974,33.68682861328125 C37.3517796819724,35.19602966308594 35.45357106380834,37.300384521484375 34.08601735287084,39.999908447265625 C32.71844838314428,42.699462890625 32.03468678646459,45.770965576171875 32.03468678646459,49.2144775390625 C32.03468678646459,52.615478515625 32.75928090267553,55.66571044921875 34.208484393886465,58.365264892578125 C35.65767262630834,61.0648193359375 37.66815541439428,63.169158935546875 40.239978534511465,64.6783447265625 C42.81180165462865,66.18756103515625 45.7305638616599,66.942138671875 48.99637196712865,66.942138671875 C50.91504262142553,66.942138671875 52.91531727962865,66.54888916015625 54.99725697689428,65.76242065429688 C57.079211932948965,64.97592163085938 58.79373524837865,63.987548828125 60.14087269955053,62.79718017578125 C60.58992360287084,62.372039794921875 60.814441425136465,61.8831787109375 60.814441425136465,61.33050537109375 C60.814441425136465,60.69281005859375 60.54910634212865,60.118896484375 60.0184056585349,59.6087646484375 C59.56937001400365,59.268646240234375 59.12031911068334,59.098602294921875 58.67126820736303,59.098602294921875 C58.09976552181615,59.098602294921875 57.54866383724584,59.3111572265625 57.01796315365209,59.736297607421875 C56.11987660580053,60.544036865234375 54.925830585292715,61.213592529296875 53.43580983333959,61.7449951171875 C51.945789081386465,62.276397705078125 50.465991718105215,62.5421142578125 48.99637196712865,62.5421142578125 C45.56727955990209,62.5421142578125 42.70975087337865,61.458038330078125 40.4236790960349,59.2899169921875 C38.137622577480215,57.12176513671875 36.83131764583959,54.29473876953125 36.5047337835349,50.808685302734375 L61.24307606869115,50.808685302734375 C61.89624379330053,50.808685302734375 62.426929218105215,50.60675048828125 62.83514760189428,50.202880859375 C63.2433812444724,49.79901123046875 63.4474828069724,49.256988525390625 63.4474828069724,48.5767822265625 C63.4474828069724,45.26080322265625 62.8045384710349,42.306243896484375 61.51863454037084,39.71295166015625 C60.23273060970678,37.11968994140625 58.42634938412084,35.089752197265625 56.0994603460349,33.62306213378906 L111.77981923275365,31.423049926757812 C115.00481007748022,31.423049926757812 117.9031712835349,32.188262939453125 120.47497914486303,33.718719482421875 C123.04680226498022,35.249176025390625 125.07770131283178,37.374755859375 126.5677220647849,40.0955810546875 C128.05774281673803,42.816375732421875 128.80273793392553,45.855987548828125 128.80273793392553,49.2144775390625 C128.80273793392553,52.572967529296875 128.06795094662084,55.601959228515625 126.59833119564428,58.301483154296875 C125.12872670345678,61.00103759765625 123.09782765560522,63.11602783203125 120.50560353451147,64.646484375 C117.91336415462865,66.17691040039062 115.00481007748022,66.942138671875 111.77981923275365,66.942138671875 C108.55484364681615,66.942138671875 105.64627431087865,66.17691040039062 103.0540501897849,64.646484375 C100.46181080990209,63.11602783203125 98.43092702083959,61.00103759765625 96.96130726986303,58.301483154296875 C95.49170277767553,55.601959228515625 94.75690053158178,52.572967529296875 94.75690053158178,49.2144775390625 C94.75690053158178,45.855987548828125 95.49170277767553,42.816375732421875 96.96130726986303,40.0955810546875 C98.43092702083959,37.374755859375 100.46181080990209,35.249176025390625 103.0540501897849,33.718719482421875 C105.64627431087865,32.188262939453125 108.55484364681615,31.423049926757812 111.77981923275365,31.423049926757812 L48.077869159511465,35.823089599609375 C44.97536061458959,35.823089599609375 42.40356801205053,36.822113037109375 40.36244557552709,38.820220947265625 C38.32132313900365,40.81829833984375 37.07625172787084,43.45404052734375 36.62720082455053,46.727508544921875 L59.0386693304099,46.727508544921875 C58.71210072689428,43.45404052734375 57.569080097011465,40.81829833984375 55.6095921819724,38.820220947265625 C53.6501195257224,36.822113037109375 51.13956044369115,35.823089599609375 48.077869159511465,35.823089599609375 L105.44215748958959,37.608612060546875 C107.34039662533178,36.46076965332031 109.45293019466772,35.88685607910156 111.77981923275365,35.88685607910156 C114.14752553158178,35.88685607910156 116.27026723080053,36.46076965332031 118.14810536556615,37.608612060546875 C120.02594350033178,38.756439208984375 121.49553273373022,40.34002685546875 122.55691884212865,42.359375 C123.61830495052709,44.37872314453125 124.14899037533178,46.663726806640625 124.14899037533178,49.2144775390625 C124.14899037533178,51.72271728515625 123.61830495052709,53.986480712890625 122.55691884212865,56.005828857421875 C121.49553273373022,58.025177001953125 120.02594350033178,59.6087646484375 118.14810536556615,60.756591796875 C116.27026723080053,61.9044189453125 114.14752553158178,62.47833251953125 111.77981923275365,62.47833251953125 C109.45293019466772,62.47833251953125 107.34039662533178,61.9044189453125 105.44215748958959,60.756591796875 C103.54390309505834,59.6087646484375 102.05389760189428,58.025177001953125 100.97211049251928,56.005828857421875 C99.89030812435522,53.986480712890625 99.34941456966772,51.72271728515625 99.34941456966772,49.2144775390625 C99.34941456966772,46.663726806640625 99.89030812435522,44.37872314453125 100.97211049251928,42.359375 C102.05389760189428,40.34002685546875 103.54390309505834,38.756439208984375 105.44215748958959,37.608612060546875 L29.881961566738028,62.79718017578125Z"/>
  </defs>
  <g opacity="1">
    <g opacity="1">
      <use xlink:href="#path-1" fill="rgb(241,135,1)" fill-opacity="1"/>
    </g>
    <g opacity="1">
      <use xlink:href="#path-2" fill="rgb(247,184,1)" fill-opacity="1"/>
    </g>
    <g opacity="1">
      <use xlink:href="#path-3" fill="rgb(255,255,255)" fill-opacity="1"/>
    </g>
  </g>
</svg>