<?xml version="1.0" encoding="UTF-8"?>
<svg width="201px" height="149px" viewBox="0 0 201 149" version="1.1" xmlns="http://www.w3.org/2000/svg" xmlns:xlink="http://www.w3.org/1999/xlink">
    <!-- Generator: Sketch 54 (76480) - https://sketchapp.com -->
    <title>Artboard</title>
    <desc>Created with Sketch.</desc>
    <g id="Artboard" stroke="none" stroke-width="1" fill="none" fill-rule="evenodd">
        <rect id="Rectangle" x="6" y="4" width="188" height="142"></rect>
        <g id="Group-3" transform="translate(133.000000, 31.000000)">
            <g id="Group-8">
                <g id="Group-5">
                    <path d="M19.4495731,1.74355437 C21.9292151,-0.678918234 25.6606266,-0.528833343 28.1402685,1.89363927 C30.6199105,4.31611187 30.6199105,8.24371599 28.1402685,10.6661886 L27.4964027,11.2952098 L20.1662505,18.1818182 L10.9090909,9.87594258 L18.8057073,2.37257559 L19.4495731,1.74355437 Z" id="Path-Copy" fill="#F5C523"></path>
                    <path d="M11.356102,9.71024596 L11.9370468,9.14150335 C14.4054602,6.72493626 18.4075492,6.72493626 20.8759626,9.14150335 C23.3443761,11.5580704 23.3443761,15.4760998 20.8759626,17.8926669 C19.2303537,19.5037116 16.046252,22.6299287 11.3236577,27.2713182 L11.3224178,27.2700945 L11.319735,27.2727273 L1.84164073,17.8917793 C-0.613880244,15.4625242 -0.613880244,11.5239236 1.84164073,9.09466856 C4.29716171,6.66541351 8.27834782,6.66541351 10.7338688,9.09466856 L11.356102,9.71024596 Z" id="Path" fill="#F5A623"></path>
                </g>
            </g>
        </g>
        <path d="M56.576,103.517 C57.0380023,104.287004 57.269,104.979997 57.269,105.596 C57.269,106.366004 56.9866695,106.981998 56.422,107.444 C55.8573305,107.906002 55.1130046,108.137 54.189,108.137 C53.5729969,108.137 53.0596687,108.008668 52.649,107.752 C52.2383313,107.495332 51.8790015,107.110336 51.571,106.597 L37.711,84.575 L25.006,84.575 L25.006,105.134 C25.006,106.006671 24.7236695,106.725331 24.159,107.29 C23.5943305,107.854669 22.875671,108.137 22.003,108.137 C21.130329,108.137 20.4116695,107.854669 19.847,107.29 C19.2823305,106.725331 19,106.006671 19,105.134 L19,51.003 C19,50.130329 19.2823305,49.4116695 19.847,48.847 C20.4116695,48.2823305 21.130329,48 22.003,48 L36.402,48 C40.1493521,48 43.4859854,48.7828255 46.412,50.3485 C49.3380146,51.9141745 51.6351583,54.1086526 53.3035,56.932 C54.9718417,59.7553475 55.806,62.9636487 55.806,66.557 C55.806,70.5096864 54.740844,73.9746518 52.6105,76.952 C50.480156,79.9293482 47.5926849,82.0596603 43.948,83.343 L56.576,103.517 Z M36.402,78.8 C38.9686795,78.8 41.2914896,78.2738386 43.3705,77.2215 C45.4495104,76.1691614 47.0664942,74.7190092 48.2215,72.871 C49.3765058,71.0229908 49.954,68.9183451 49.954,66.557 C49.954,64.0929877 49.3765058,61.8856764 48.2215,59.935 C47.0664942,57.9843236 45.4623436,56.4700054 43.409,55.392 C41.3556564,54.3139946 39.0200131,53.775 36.402,53.775 L25.006,53.775 L25.006,78.8 L36.402,78.8 Z M79.4569998,65.633 C83.2556855,65.633 86.6179852,66.5184911 89.5439998,68.2895 C92.4700144,70.0605089 94.7414917,72.511651 96.3584998,75.643 C97.9755079,78.774349 98.7839998,82.34198 98.7839998,86.346 C98.7839998,87.1673374 98.5273357,87.8218309 98.0139998,88.3095 C97.5006639,88.7971691 96.8333372,89.041 96.0119998,89.041 L64.9039998,89.041 C65.3146685,93.2503544 66.9573188,96.6639869 69.8319998,99.282 C72.7066808,101.900013 76.2999782,103.209 80.6119998,103.209 C82.460009,103.209 84.3208238,102.88817 86.1944998,102.2465 C88.0681758,101.60483 89.5696608,100.796338 90.6989998,99.821 C91.3663365,99.3076641 92.0593295,99.051 92.7779998,99.051 C93.3426693,99.051 93.9073303,99.2563313 94.4719998,99.667 C95.1393365,100.283003 95.4729998,100.975996 95.4729998,101.746 C95.4729998,102.413337 95.1906693,103.003664 94.6259998,103.517 C92.9319913,104.954341 90.7760129,106.147829 88.1579998,107.0975 C85.5399867,108.047171 83.0246785,108.522 80.6119998,108.522 C76.5053126,108.522 72.835016,107.610842 69.6009998,105.7885 C66.3669836,103.966158 63.8388423,101.425183 62.0164998,98.1655 C60.1941574,94.905817 59.2829998,91.2226872 59.2829998,87.116 C59.2829998,82.9579792 60.1428245,79.249183 61.8624998,75.9895 C63.5821751,72.729817 65.9691512,70.1888424 69.0234998,68.3665 C72.0778484,66.5441576 75.555647,65.633 79.4569998,65.633 Z M79.4569998,70.946 C75.555647,70.946 72.3216793,72.1523213 69.7549998,74.565 C67.1883203,76.9776787 65.6226693,80.1603136 65.0579998,84.113 L93.2399998,84.113 C92.8293311,80.1603136 91.3920121,76.9776787 88.9279998,74.565 C86.4639875,72.1523213 83.3070191,70.946 79.4569998,70.946 Z M136.295,103.902 C136.757002,104.415336 136.988,105.005663 136.988,105.673 C136.988,106.443004 136.62867,107.135997 135.91,107.752 C135.293997,108.214002 134.678003,108.445 134.062,108.445 C133.240662,108.445 132.547669,108.08567 131.983,107.367 L116.121,87.886 L110.346,93.122 L110.346,105.211 C110.346,106.083671 110.076502,106.789497 109.5375,107.3285 C108.998497,107.867503 108.292671,108.137 107.42,108.137 C106.547329,108.137 105.841502,107.867503 105.3025,107.3285 C104.763497,106.789497 104.494,106.083671 104.494,105.211 L104.494,50.926 C104.494,50.053329 104.763497,49.3475027 105.3025,48.8085 C105.841502,48.2694973 106.547329,48 107.42,48 C108.292671,48 108.998497,48.2694973 109.5375,48.8085 C110.076502,49.3475027 110.346,50.053329 110.346,50.926 L110.346,85.961 L132.06,66.326 C132.624669,65.8126641 133.240663,65.556 133.908,65.556 C134.678003,65.556 135.319664,65.8639969 135.833,66.48 C136.397669,67.1473367 136.68,67.7633305 136.68,68.328 C136.68,69.0466703 136.346336,69.6883305 135.679,70.253 L120.279,84.19 L136.295,103.902 Z M159.560999,65.633 C163.616353,65.633 167.260983,66.5569908 170.494999,68.405 C173.729016,70.2530092 176.282823,72.8196502 178.156499,76.105 C180.030175,79.3903498 180.966999,83.0606464 180.966999,87.116 C180.966999,91.1713536 180.043009,94.828817 178.194999,98.0885 C176.34699,101.348183 173.793182,103.901991 170.533499,105.75 C167.273816,107.598009 163.616353,108.522 159.560999,108.522 C155.505646,108.522 151.848182,107.598009 148.588499,105.75 C145.328816,103.901991 142.775009,101.348183 140.926999,98.0885 C139.07899,94.828817 138.154999,91.1713536 138.154999,87.116 C138.154999,83.0606464 139.07899,79.3903498 140.926999,76.105 C142.775009,72.8196502 145.328816,70.2530092 148.588499,68.405 C151.848182,66.5569908 155.505646,65.633 159.560999,65.633 Z M159.560999,71.023 C156.634985,71.023 153.978511,71.7159931 151.591499,73.102 C149.204487,74.4880069 147.33084,76.4001545 145.970499,78.8385 C144.610159,81.2768455 143.929999,84.0359846 143.929999,87.116 C143.929999,90.1446818 144.610159,92.8781545 145.970499,95.3165 C147.33084,97.7548455 149.204487,99.6669931 151.591499,101.053 C153.978511,102.439007 156.634985,103.132 159.560999,103.132 C162.538348,103.132 165.207654,102.439007 167.568999,101.053 C169.930345,99.6669931 171.778326,97.7548455 173.112999,95.3165 C174.447673,92.8781545 175.114999,90.1446818 175.114999,87.116 C175.114999,84.0359846 174.447673,81.2768455 173.112999,78.8385 C171.778326,76.4001545 169.930345,74.4880069 167.568999,73.102 C165.207654,71.7159931 162.538348,71.023 159.560999,71.023 Z" id="Reko" fill="#484848" fill-rule="nonzero"></path>
        <g id="Group-3-Copy" transform="translate(19.000000, 29.000000)">
            <g id="Group" transform="translate(112.300000, 0.000000)">
                <g id="Group-2">
                    <g id="Group-4">
                        <g id="Group-6"></g>
                    </g>
                </g>
            </g>
        </g>
    </g>
</svg>