<?xml version="1.0" encoding="utf-8"?>
<svg version="1.1" xmlns="http://www.w3.org/2000/svg" xmlns:xlink="http://www.w3.org/1999/xlink" height="14.53321664912528" width="14.49566652408248">
  <defs>
    <path id="path-1" opacity="1" fill-rule="evenodd" d="M10.261055012852012,9.072845494222747 L14.22979738345748,13.053588902425872 C14.45488741031295,13.268341099691497 14.54619600406295,13.588562046957122 14.46834947696334,13.890136753988372 C14.39050294986373,14.191741978597747 14.15572740665084,14.427337681722747 13.854991933018027,14.505645787191497 C13.554256459385215,14.583953892660247 13.234813710361777,14.492675816488372 13.020431538730918,14.267181431722747 L9.055313130527793,10.289550816488372 L9.051170369297324,10.292663609457122 C8.080238362461387,11.013336216878997 6.902904530674277,11.399902378988372 5.694877644687949,11.394653355550872 C2.5540542804301367,11.376464878988372 0.013671895176230464,8.825714146566497 0.00009920230513671413,5.676605259847747 C-0.008766154140175786,4.169738804769622 0.5838127337992773,2.721893345785247 1.6458244525492773,1.6556396836758722 C2.7078323566020117,0.5893555039883722 4.151054402500449,-0.00677486710537778 5.653976460605918,0.00006107039462222019 C8.794517537266074,0.01824954695712222 11.334663411289512,2.568786656332122 11.348239918857871,5.717590367269622 C11.353553792148887,6.923889195394622 10.972457905918418,8.100036656332122 10.261055012852012,9.072845494222747 L1.1349144183695898,5.680755650472747 C1.1459427081645117,8.199890171957122 3.178215047031699,10.240295445394622 5.6907348834574805,10.254791295003997 C6.892921467930137,10.259796177816497 8.047210713535605,9.782714878988372 8.89665987125045,8.929779087972747 C9.746105214268027,8.076812779378997 10.2202072345317,6.918792759847747 10.213424702793418,5.713439976644622 C10.202396412998496,3.194305455160247 8.170124074131309,1.1539001817227472 5.657604237705527,1.1394043321133722 C4.455417653232871,1.1343994493008722 3.3011284076274023,1.6114807481289972 2.451683064609824,2.464416539144622 C1.6022339068949805,3.317382847738372 1.1281318866313086,4.475402867269622 1.1349144183695898,5.680755650472747 L10.261055012852012,9.072845494222747Z"/>
  </defs>
  <g opacity="1">
    <use xlink:href="#path-1" fill="rgb(119,119,119)" fill-opacity="1"/>
  </g>
</svg>