<?xml version="1.0" encoding="UTF-8"?>
<svg width="61px" height="61px" viewBox="0 0 61 61" version="1.1" xmlns="http://www.w3.org/2000/svg" xmlns:xlink="http://www.w3.org/1999/xlink">
    <!-- Generator: Sketch 54 (76480) - https://sketchapp.com -->
    <title>Group 2</title>
    <desc>Created with Sketch.</desc>
    <g id="Page-1" stroke="none" stroke-width="1" fill="none" fill-rule="evenodd">
        <g id="noun_Search_961315" transform="translate(-21.000000, 0.000000)" fill="#6966F6" fill-rule="nonzero">
            <g id="Group" transform="translate(21.000000, 0.000000)">
                <g id="Group-2" transform="translate(0.025000, 0.025000)">
                    <path d="M46.075,7.875 C35.575,-2.625 18.375,-2.625 7.875,7.875 C-2.625,18.375 -2.625,35.575 7.875,46.075 C13.175,51.375 20.075,53.975 26.975,53.975 C33.275,53.975 39.575,51.775 44.575,47.475 L56.675,59.575 C57.075,59.975 57.575,60.175 58.075,60.175 C58.575,60.175 59.075,59.975 59.475,59.575 C60.275,58.775 60.275,57.575 59.475,56.775 L47.375,44.575 C56.575,33.975 56.075,17.975 46.075,7.875 Z M10.675,43.275 C1.675,34.275 1.675,19.675 10.675,10.775 C15.175,6.275 21.075,3.975 26.975,3.975 C32.875,3.975 38.775,6.175 43.275,10.675 C52.275,19.675 52.275,34.275 43.275,43.175 C34.275,52.175 19.675,52.175 10.675,43.275 Z" id="Shape"></path>
                    <path d="M36.975,24.975 L28.975,24.975 L28.975,16.975 C28.975,15.875 28.075,14.975 26.975,14.975 C25.875,14.975 24.975,15.875 24.975,16.975 L24.975,24.975 L16.975,24.975 C15.875,24.975 14.975,25.875 14.975,26.975 C14.975,28.075 15.875,28.975 16.975,28.975 L24.975,28.975 L24.975,36.975 C24.975,38.075 25.875,38.975 26.975,38.975 C28.075,38.975 28.975,38.075 28.975,36.975 L28.975,28.975 L36.975,28.975 C38.075,28.975 38.975,28.075 38.975,26.975 C38.975,25.875 38.075,24.975 36.975,24.975 Z" id="Path"></path>
                </g>
            </g>
        </g>
    </g>
</svg>