<?xml version="1.0" encoding="utf-8"?>
<svg version="1.1" xmlns="http://www.w3.org/2000/svg" xmlns:xlink="http://www.w3.org/1999/xlink" height="27.20441543089146" width="30.099014804593025">
  <defs>
    <path id="path-1" opacity="1" fill-rule="evenodd" d="M1.5141000723403422,10.764832058459197 C-0.5055926918547674,12.808001843060673 -0.5038071589740697,16.09586716872121 1.5141000723403422,18.14109090636074 L10.4524776731139,27.204415430891633 C13.435592964508418,24.186901673864583 25.60119370908048,11.926599245606935 28.584053924349185,8.908828744450139 C30.604001764670112,6.86565895984866 30.604001764670112,3.5757396811500706 28.584053924349185,1.5325698965485928 C26.564361160154075,-0.5108566321826397 23.31239563215162,-0.5108566321826397 21.292447791830696,1.5325698965485928 L10.462935794272273,12.441371225768528 L8.805706204858833,10.764832058459197 C6.786013440663721,8.721662273857717 3.533792836535451,8.721662273857717 1.5141000723403422,10.764832058459197Z"/>
    <path id="path-2" opacity="1" fill-rule="evenodd" d="M1.4952726886281698,10.97517598798232 C-0.49930579722486423,12.992203482269083 -0.49754246691405707,16.23800067903162 1.4952726886281698,18.25705584609475 L10.322504224528906,27.20441543089207 C13.268525365227468,24.22551066331826 16.21429460159592,21.24660589574446 19.16006383796437,18.26744766907361 C21.15489422814752,16.250420174786846 21.15489422814752,13.002595305247942 19.16006383796437,10.985567810961179 C17.165485352111336,8.968286857577368 13.95395704747123,8.968286857577368 11.959126657288081,10.985567810961179 L10.332832302063633,12.630263891688347 L8.696209869304457,10.97517598798232 C6.701631383451421,8.958148493695557 3.489851174481203,8.958148493695557 1.4952726886281698,10.97517598798232Z"/>
  </defs>
  <g opacity="1">
    <g opacity="1">
      <use xlink:href="#path-1" fill="rgb(230,230,230)" fill-opacity="1"/>
    </g>
    <g opacity="1">
      <use xlink:href="#path-2" fill="rgb(255,255,255)" fill-opacity="1"/>
    </g>
  </g>
</svg>