<?xml version="1.0" encoding="UTF-8"?>
<svg width="131px" height="120px" viewBox="0 0 131 120" version="1.1" xmlns="http://www.w3.org/2000/svg" xmlns:xlink="http://www.w3.org/1999/xlink">
    <!-- Generator: Sketch 54 (76480) - https://sketchapp.com -->
    <title>Group</title>
    <desc>Created with Sketch.</desc>
    <g id="Page-1" stroke="none" stroke-width="1" fill="none" fill-rule="evenodd">
        <g id="final-logo-copy-3" transform="translate(-1476.000000, -660.000000)">
            <g id="Group" transform="translate(1476.000000, 660.000000)">
                <path d="M85.6834045,7.57574376 C96.3340572,-2.94989973 112.361358,-2.29778087 123.012011,8.22786261 C133.662663,18.7535061 133.662663,35.818946 123.012011,46.3445895 L120.246453,49.0776867 L88.7617045,79 L49,42.9109705 L82.9178473,10.308841 L85.6834045,7.57574376 Z" id="Path-Copy" fill="#F0F0F0"></path>
                <path d="M48.6220622,42.8839838 L51.1094236,40.4122681 C61.6781339,29.9100361 78.813399,29.9100361 89.3821093,40.4122681 C99.9508195,50.9145001 99.9508195,67.9419824 89.3821093,78.4442144 C82.3363024,85.4457023 68.7033157,99.0320238 48.4831491,119.203179 L48.4778402,119.197861 L48.4663539,119.209302 L7.88513258,78.4403568 C-2.62837753,67.8829838 -2.62837753,50.7661003 7.88513258,40.2087274 C18.3986427,29.6513544 35.4444105,29.6513544 45.9579206,40.2087274 L48.6220622,42.8839838 Z" id="Path" fill="#FDFDFD"></path>
            </g>
        </g>
    </g>
</svg>