<?xml version="1.0" standalone="no"?>
<!DOCTYPE svg PUBLIC "-//W3C//DTD SVG 20010904//EN"
 "http://www.w3.org/TR/2001/REC-SVG-20010904/DTD/svg10.dtd">
<svg version="1.0" xmlns="http://www.w3.org/2000/svg"
 width="260.000000pt" height="260.000000pt" viewBox="0 0 260.000000 260.000000"
 preserveAspectRatio="xMidYMid meet">
<metadata>
Created by potrace 1.11, written by Peter Selinger 2001-2013
</metadata>
<g transform="translate(0.000000,260.000000) scale(0.100000,-0.100000)"
fill="#000000" stroke="none">
<path d="M1753 2130 c-79 -17 -126 -53 -340 -258 -118 -114 -247 -234 -287
-268 l-71 -61 -53 48 c-71 65 -144 92 -247 92 -59 0 -95 -5 -138 -22 -81 -32
-166 -113 -203 -193 -26 -56 -29 -74 -29 -158 0 -86 3 -101 33 -164 29 -62 62
-99 334 -373 l302 -304 331 329 c181 180 426 420 542 531 180 172 217 213 243
265 58 117 50 256 -22 369 -80 126 -250 198 -395 167z"/>
</g>
</svg>
